<svg width="191" height="70" viewBox="0 0 191 70" fill="none" xmlns="http://www.w3.org/2000/svg">
<path fill-rule="evenodd" clip-rule="evenodd" d="M27.3315 45.525C17.8125 51.6104 7.35592 56.3953 -4.00651e-05 63.9952L5.22754 67.026C28.8556 49.855 46.5239 39.5587 75.0618 31.1921C96.4607 24.939 116.793 22.2753 138.991 24.3954C150.813 25.5178 165.325 27.8516 176.001 33.3522C178.92 34.8519 181.695 36.6378 184.296 38.8166C149.275 24.5839 114.181 23.8376 78.3058 34.4367C63.6645 38.7528 49.2824 44.8675 35.0381 51.9516L45.0509 62.0824L41.9338 56.365L60.9295 65.6161C56.1511 58.9359 49.3587 55.296 49.0371 51.4789C67.1879 63.0005 84.3026 69.3316 99.6116 69.075C96.2032 65.9014 92.1778 62.3815 90.6688 59.7078C111.696 65.8735 128.759 62.4371 147.651 62.0138C129.053 54.0571 114.436 42.9923 112.249 36.8673C139.383 59.029 163.403 64.0708 183.69 48.5817C185.745 46.8145 187.418 44.752 188.605 42.3203C196.355 26.5249 174.488 4.0439 158.102 9.97183C154.825 11.1542 151.008 11.6732 147.199 13.0416L165.269 3.87047C139.265 -3.76176 132.055 2.85259 104.666 18.8066C110.554 12.2394 117.096 7.13196 123.978 2.80674C90.6012 -5.46649 63.9851 13.9053 47.3926 34.6145C51.9315 26.516 59.9915 17.9923 70.1793 9.21264C57.1287 11.5229 45.595 16.8844 38.4502 31.0577L36.0373 27.0355L33.0487 35.2321L29.5412 29.0697L27.3315 45.525Z" fill="#D7D7D7"/>
</svg>
