<svg width="120" height="115" viewBox="0 0 120 115" fill="none" xmlns="http://www.w3.org/2000/svg">
<path fill-rule="evenodd" clip-rule="evenodd" d="M59.9316 8.04688L78.5449 0L88.75 17.3633L108.545 21.7969L106.592 41.8457L120 57.0606L106.641 72.1387L108.594 92.334L88.8672 96.6797L78.5449 114.131L60.0684 106.074L41.4551 114.131L31.25 96.7578L11.4551 92.334L13.4082 72.2754L0 57.0606L13.3594 41.9922L11.4551 21.7969L31.1328 17.4512L41.4551 0L59.9316 8.04688ZM36.5625 63.0371C30.6348 56.6602 39.7363 47.1582 46.3281 53.1738C48.6523 55.293 52.0312 58.3887 54.375 60.4883L72.4414 38.2617C78.7305 31.7676 88.6621 41.3086 82.4512 47.8516L59.7656 74.9219C58.5239 76.2359 56.8198 77.0154 55.0137 77.0956C53.2076 77.1758 51.4412 76.5503 50.0879 75.3516C46.2402 71.6895 40.5957 66.4063 36.5625 63.0371Z" fill="#D7D7D7"/>
</svg>
