<svg width="405" height="333" viewBox="0 0 405 333" fill="none" xmlns="http://www.w3.org/2000/svg">
<g clip-path="url(#clip0_7_50)">
<path d="M201.883 217.392C166.86 200.533 116.763 167.073 116.763 100.883C116.763 34.6926 119.93 4.59097 119.93 4.59097H201.882H283.836C283.836 4.59097 287.003 34.6931 287.003 100.883C287.003 167.073 236.907 200.533 201.883 217.392Z" stroke="#D7D7D7" stroke-width="7"/>
<path d="M209.553 133.413L209.368 99.0306C220.047 98.895 238.695 99.0001 253.797 104.054C253.797 104.054 253.362 98.1628 253.362 91.2984C253.362 84.4355 253.797 78.5441 253.797 78.5441C237.334 84.0529 218.844 83.6817 209.368 83.5289V60.5696C218.005 60.493 230.452 60.9056 244.524 65.6149C244.524 65.6149 244.09 59.7234 244.09 52.8596C244.09 45.9962 244.524 40.1047 244.524 40.1047C230.472 44.8067 218.041 45.2256 209.406 45.151C209.85 30.6124 214.085 12.2873 214.085 12.2873C214.085 12.2873 205.368 12.968 201.884 12.968C198.399 12.968 189.682 12.2873 189.682 12.2873C189.682 12.2873 193.918 30.6124 194.361 45.1505C185.726 45.2251 173.295 44.8062 159.243 40.1047C159.243 40.1047 159.677 45.9957 159.677 52.8591C159.677 59.7229 159.243 65.6144 159.243 65.6144C173.316 60.9051 185.762 60.4925 194.399 60.5691V83.5284C184.923 83.6817 166.434 84.0529 149.97 78.5436C149.97 78.5436 150.405 84.435 150.405 91.2979C150.405 98.1628 149.97 104.053 149.97 104.053C165.072 99.0001 183.721 98.8945 194.399 99.0301L194.28 132.218L209.348 132.286L209.553 133.413Z" stroke="#D7D7D7" stroke-width="7"/>
<path d="M270.068 161.195C265.51 153.171 258.327 144.48 248.583 144.48C243.97 144.48 240.296 145.673 237.434 147.294C231.374 150.726 228.953 156.075 228.953 156.075C228.953 156.075 219.51 132.352 201.884 132.352C184.257 132.352 174.815 156.075 174.815 156.075C174.815 156.075 169.566 144.481 155.184 144.481C145.44 144.481 138.257 153.171 133.699 161.195C151.415 189.338 179.676 206.704 201.882 217.392C224.09 206.704 252.351 189.338 270.068 161.195Z" stroke="#D7D7D7" stroke-width="7"/>
</g>
<path fill-rule="evenodd" clip-rule="evenodd" d="M232.274 232.916C222.755 239.002 212.299 243.787 204.943 251.386L210.17 254.417C233.798 237.246 251.467 226.95 280.005 218.583C301.404 212.33 321.736 209.667 343.934 211.787C355.756 212.909 370.268 215.243 380.944 220.743C383.863 222.243 386.638 224.029 389.239 226.208C354.218 211.975 319.124 211.229 283.249 221.828C268.607 226.144 254.225 232.259 239.981 239.343L249.994 249.474L246.877 243.756L265.872 253.007C261.094 246.327 254.302 242.687 253.98 238.87C272.131 250.392 289.245 256.723 304.554 256.466C301.146 253.293 297.121 249.773 295.612 247.099C316.639 253.265 333.701 249.828 352.594 249.405C333.996 241.448 319.379 230.384 317.192 224.259C344.326 246.42 368.346 251.462 388.633 235.973C390.687 234.206 392.361 232.143 393.548 229.712C401.298 213.916 379.431 191.435 363.045 197.363C359.768 198.545 355.951 199.064 352.142 200.433L370.212 191.262C344.208 183.629 336.998 190.244 309.609 206.198C315.497 199.631 322.039 194.523 328.921 190.198C295.544 181.925 268.928 201.297 252.335 222.006C256.874 213.907 264.934 205.384 275.122 196.604C262.072 198.914 250.538 204.276 243.393 218.449L240.98 214.427L237.992 222.623L234.484 216.461L232.274 232.916Z" fill="#D7D7D7"/>
<path fill-rule="evenodd" clip-rule="evenodd" d="M171.846 232.916C181.365 239.002 191.821 243.787 199.177 251.386L193.95 254.417C170.322 237.246 152.653 226.95 124.115 218.583C102.717 212.33 82.384 209.667 60.1859 211.787C48.3642 212.909 33.8518 215.243 23.1758 220.743C20.2574 222.243 17.482 224.029 14.8814 226.208C49.9023 211.975 84.9965 211.229 120.871 221.828C135.513 226.144 149.895 232.259 164.139 239.343L154.126 249.474L157.243 243.756L138.248 253.007C143.026 246.327 149.819 242.687 150.14 238.87C131.989 250.392 114.875 256.723 99.5657 256.466C102.974 253.293 106.999 249.773 108.508 247.099C87.4813 253.265 70.4187 249.828 51.5259 249.405C70.1241 241.448 84.7409 230.384 86.9279 224.259C59.7943 246.42 35.7739 251.462 15.4868 235.973C13.4327 234.206 11.7593 232.143 10.5724 229.712C2.82186 213.916 24.6888 191.435 41.0748 197.363C44.3526 198.545 48.1689 199.064 51.9781 200.433L33.9086 191.262C59.9118 183.629 67.1221 190.244 94.5114 206.198C88.6235 199.631 82.0816 194.523 75.199 190.198C108.576 181.925 135.192 201.297 151.785 222.006C147.246 213.907 139.186 205.384 128.998 196.604C142.049 198.914 153.582 204.276 160.727 218.449L163.14 214.427L166.129 222.623L169.636 216.461L171.846 232.916Z" fill="#D7D7D7"/>
<defs>
<clipPath id="clip0_7_50">
<rect width="176.803" height="221.003" fill="white" transform="translate(113.659)"/>
</clipPath>
</defs>
</svg>
